<?xml version="1.0" standalone="no"?>
<!DOCTYPE svg PUBLIC "-//W3C//DTD SVG 20010904//EN"
 "http://www.w3.org/TR/2001/REC-SVG-20010904/DTD/svg10.dtd">
<svg version="1.0" xmlns="http://www.w3.org/2000/svg"
 width="114.000000pt" height="114.000000pt" viewBox="0 0 114.000000 114.000000"
 preserveAspectRatio="xMidYMid meet">
<metadata>
Created by potrace 1.11, written by Peter Selinger 2001-2013
</metadata>
<g transform="translate(0.000000,114.000000) scale(0.100000,-0.100000)"
fill="#000000" stroke="none">
<path d="M365 1122 c-3 -3 -5 -37 -5 -77 l0 -71 -57 -19 c-122 -40 -182 -110
-169 -199 4 -26 14 -50 22 -53 8 -3 14 -11 14 -19 0 -8 4 -14 8 -14 5 0 17 -8
28 -19 24 -22 137 -77 179 -87 17 -4 39 -12 50 -18 11 -5 22 -11 25 -12 3 0
12 -3 20 -6 8 -4 24 -9 35 -11 53 -14 98 -36 135 -66 32 -26 40 -38 40 -65 0
-74 -59 -89 -344 -90 l-222 0 -1 -48 c-2 -55 -18 -49 145 -50 l92 0 0 -89 c0
-49 3 -89 8 -90 4 0 26 -2 50 -2 l43 -2 -4 82 c-2 45 -1 86 2 90 3 5 30 10 59
11 l52 2 0 -90 c0 -53 4 -90 10 -91 13 -1 56 -1 74 0 10 1 13 23 14 93 l0 92
29 10 c15 5 40 17 55 27 14 11 29 19 33 19 23 0 65 88 65 136 0 56 -18 85 -89
146 -21 17 -83 48 -98 48 -8 0 -25 7 -38 16 -13 9 -30 17 -37 18 -13 2 -111
33 -138 43 -8 4 -18 5 -22 5 -5 -1 -8 2 -8 8 0 5 -4 10 -9 10 -5 0 -22 5 -38
12 -15 6 -31 11 -35 10 -4 -1 -16 10 -27 24 -15 19 -18 31 -11 54 12 41 15 46
54 64 29 14 80 16 360 16 l326 0 0 49 c0 30 -5 50 -12 53 -7 2 -89 4 -181 3
-99 -1 -171 3 -174 8 -3 6 -5 38 -4 72 2 69 -1 72 -59 70 l-35 -1 -5 -74 -5
-75 -47 0 c-25 0 -49 3 -52 6 -4 3 -8 37 -9 75 l-4 68 -41 2 c-23 0 -44 -1
-47 -4z"/>
<path d="M786 831 c-4 -5 -3 -17 0 -25 6 -14 24 -17 130 -15 124 1 124 1 124
25 l0 24 -124 0 c-69 0 -127 -4 -130 -9z"/>
</g>
</svg>
